<?xml version="1.0" standalone="no"?>
<!DOCTYPE svg PUBLIC "-//W3C//DTD SVG 20010904//EN"
 "http://www.w3.org/TR/2001/REC-SVG-20010904/DTD/svg10.dtd">
<svg version="1.0" xmlns="http://www.w3.org/2000/svg"
 width="108.000000pt" height="108.000000pt" viewBox="0 0 108.000000 108.000000"
 preserveAspectRatio="xMidYMid meet">
<metadata>
Created by potrace 1.16, written by Peter Selinger 2001-2019
</metadata>
<g transform="translate(0.000000,108.000000) scale(0.100000,-0.100000)"
fill="#000000" stroke="none">
<path d="M393 1065 c-161 -45 -293 -165 -360 -327 -31 -75 -42 -229 -24 -318
35 -170 162 -316 333 -387 75 -31 229 -42 318 -24 170 35 316 162 387 333 31
75 42 229 24 318 -35 169 -161 316 -333 387 -53 22 -82 27 -178 30 -80 2 -131
-2 -167 -12z m262 -370 c24 -23 25 -29 25 -155 0 -126 -1 -132 -25 -155 -35
-36 -67 -31 -169 27 -192 109 -192 146 -6 253 106 61 139 67 175 30z"/>
</g>
</svg>
